<?xml version="1.0" standalone="no"?>
<!DOCTYPE svg PUBLIC "-//W3C//DTD SVG 20010904//EN"
 "http://www.w3.org/TR/2001/REC-SVG-20010904/DTD/svg10.dtd">
<svg version="1.0" xmlns="http://www.w3.org/2000/svg"
 width="659.000000pt" height="217.000000pt" viewBox="0 0 659.000000 217.000000"
 preserveAspectRatio="xMidYMid meet">

<g transform="translate(0.000000,217.000000) scale(0.100000,-0.100000)"
fill="#000000" stroke="none">
<path d="M4103 2139 c-141 -69 -134 -284 12 -350 82 -38 179 -12 239 64 42 52
48 136 16 203 -46 95 -167 133 -267 83z"/>
<path d="M6278 2131 c-132 -84 -112 -284 34 -346 165 -68 326 109 247 273 -32
65 -94 102 -174 102 -50 0 -69 -5 -107 -29z"/>
<path d="M537 2134 c-263 -48 -442 -199 -503 -424 -25 -96 -23 -274 5 -362 40
-125 143 -231 295 -302 102 -48 173 -69 436 -131 258 -61 330 -88 382 -143 85
-89 76 -234 -20 -324 -69 -64 -141 -90 -275 -96 -229 -10 -378 58 -459 211
-42 77 -88 109 -169 115 -108 8 -194 -47 -219 -139 -16 -59 2 -124 59 -212
136 -208 393 -317 747 -317 335 0 578 99 703 285 55 83 75 136 92 245 31 205
-30 403 -155 502 -111 88 -248 140 -621 237 -241 62 -308 86 -364 128 -98 75
-93 248 10 322 80 58 237 84 378 62 139 -22 209 -69 269 -181 18 -34 45 -67
71 -85 37 -26 51 -30 109 -30 78 0 118 19 165 77 23 29 31 51 35 93 4 49 0 64
-28 121 -91 179 -284 307 -527 349 -106 19 -311 18 -416 -1z"/>
<path d="M4838 1961 c-51 -16 -94 -50 -116 -89 l-22 -40 0 -654 c0 -619 1
-659 20 -732 49 -193 173 -320 370 -381 82 -25 277 -31 370 -11 89 19 198 70
258 121 58 51 120 144 151 229 23 66 25 87 29 289 2 121 1 230 -2 243 -10 38
-64 91 -111 110 -83 31 -185 -7 -224 -84 -16 -31 -19 -65 -23 -217 -4 -161 -7
-186 -27 -233 -39 -86 -108 -132 -201 -132 -85 0 -154 40 -190 110 -34 67 -41
151 -38 480 l3 315 365 5 c265 4 371 8 387 17 42 25 63 63 63 115 0 58 -20 98
-64 124 -29 18 -59 19 -393 22 l-362 3 -3 139 c-3 138 -3 138 -34 177 -17 21
-45 46 -61 55 -36 22 -108 31 -145 19z"/>
<path d="M4156 1589 c-56 -13 -92 -43 -121 -102 l-26 -53 3 -645 c3 -623 4
-645 23 -678 62 -105 187 -132 272 -58 76 66 73 35 73 753 l0 641 -23 44 c-26
49 -86 95 -132 102 -16 2 -47 0 -69 -4z"/>
<path d="M6343 1590 c-46 -11 -97 -52 -119 -97 -18 -36 -19 -74 -22 -673 -2
-439 0 -647 8 -673 6 -20 25 -54 43 -74 90 -103 238 -77 298 52 17 38 19 78
19 675 l0 635 -24 51 c-13 28 -37 60 -52 71 -25 18 -99 45 -114 42 -3 -1 -20
-5 -37 -9z"/>
<path d="M1915 1565 c-5 -2 -22 -6 -37 -9 -35 -8 -94 -59 -115 -100 -32 -62
-23 -107 137 -666 84 -294 160 -551 170 -570 26 -52 68 -90 129 -118 107 -49
241 -14 316 84 26 33 46 97 124 384 52 190 96 349 99 354 3 5 47 -146 99 -335
56 -204 104 -361 119 -386 92 -158 334 -164 440 -12 20 29 67 180 186 597 177
618 179 625 124 696 -15 20 -38 44 -51 52 -86 56 -225 22 -271 -67 -8 -16 -58
-211 -110 -432 -53 -221 -97 -404 -99 -406 -5 -4 -10 16 -109 421 -47 191 -94
365 -105 386 -40 79 -119 124 -216 124 -100 0 -183 -50 -224 -135 -11 -23 -49
-181 -86 -352 -97 -456 -96 -453 -105 -429 -5 11 -52 193 -105 404 -53 211
-103 396 -111 412 -17 33 -49 65 -84 83 -27 13 -98 26 -115 20z"/>
</g>
</svg>
